<mxfile host="Electron" modified="2024-07-22T13:13:33.140Z" agent="Mozilla/5.0 (Macintosh; Intel Mac OS X 10_15_7) AppleWebKit/537.36 (KHTML, like Gecko) draw.io/24.6.4 Chrome/124.0.6367.207 Electron/30.0.6 Safari/537.36" etag="0xz0D8R7bJITAFuOziXK" version="24.6.4" type="device">
  <diagram name="페이지-1" id="hIVG5G75KpgzT5q8oFG-">
    <mxGraphModel dx="1114" dy="894" grid="1" gridSize="10" guides="1" tooltips="1" connect="1" arrows="1" fold="1" page="1" pageScale="1" pageWidth="827" pageHeight="1169" math="0" shadow="0">
      <root>
        <mxCell id="0" />
        <mxCell id="1" parent="0" />
        <mxCell id="S2n5dIdWyxlMUNsfM2IR-1" value="" style="rounded=1;whiteSpace=wrap;html=1;dashed=1;" vertex="1" parent="1">
          <mxGeometry x="60" y="60" width="440" height="190" as="geometry" />
        </mxCell>
        <mxCell id="S2n5dIdWyxlMUNsfM2IR-2" value="이벤트 핸들러" style="rounded=0;whiteSpace=wrap;html=1;fillColor=#dae8fc;strokeColor=#6c8ebf;" vertex="1" parent="1">
          <mxGeometry x="380" y="280" width="100" height="40" as="geometry" />
        </mxCell>
        <mxCell id="S2n5dIdWyxlMUNsfM2IR-3" style="edgeStyle=orthogonalEdgeStyle;rounded=0;orthogonalLoop=1;jettySize=auto;html=1;endArrow=none;endFill=0;fillColor=#f8cecc;strokeColor=#b85450;startArrow=block;startFill=1;" edge="1" parent="1" source="S2n5dIdWyxlMUNsfM2IR-4" target="S2n5dIdWyxlMUNsfM2IR-2">
          <mxGeometry relative="1" as="geometry" />
        </mxCell>
        <mxCell id="S2n5dIdWyxlMUNsfM2IR-4" value="API" style="rounded=0;whiteSpace=wrap;html=1;fillColor=#dae8fc;strokeColor=#6c8ebf;" vertex="1" parent="1">
          <mxGeometry x="230" y="280" width="100" height="40" as="geometry" />
        </mxCell>
        <mxCell id="S2n5dIdWyxlMUNsfM2IR-5" value="로컬 핸들러" style="rounded=0;whiteSpace=wrap;html=1;fillColor=#dae8fc;strokeColor=#6c8ebf;" vertex="1" parent="1">
          <mxGeometry x="380" y="80" width="100" height="40" as="geometry" />
        </mxCell>
        <mxCell id="S2n5dIdWyxlMUNsfM2IR-6" style="edgeStyle=orthogonalEdgeStyle;rounded=0;orthogonalLoop=1;jettySize=auto;html=1;entryX=0;entryY=0.5;entryDx=0;entryDy=0;endArrow=block;endFill=1;" edge="1" parent="1" source="S2n5dIdWyxlMUNsfM2IR-7" target="S2n5dIdWyxlMUNsfM2IR-5">
          <mxGeometry relative="1" as="geometry" />
        </mxCell>
        <mxCell id="S2n5dIdWyxlMUNsfM2IR-7" value="이벤트 디스패처" style="rounded=0;whiteSpace=wrap;html=1;fillColor=#dae8fc;strokeColor=#6c8ebf;" vertex="1" parent="1">
          <mxGeometry x="230" y="80" width="100" height="40" as="geometry" />
        </mxCell>
        <mxCell id="S2n5dIdWyxlMUNsfM2IR-8" style="edgeStyle=orthogonalEdgeStyle;rounded=0;orthogonalLoop=1;jettySize=auto;html=1;entryX=0;entryY=0.5;entryDx=0;entryDy=0;endArrow=block;endFill=1;" edge="1" parent="1" source="S2n5dIdWyxlMUNsfM2IR-9" target="S2n5dIdWyxlMUNsfM2IR-7">
          <mxGeometry relative="1" as="geometry" />
        </mxCell>
        <mxCell id="S2n5dIdWyxlMUNsfM2IR-9" value="도메인" style="rounded=0;whiteSpace=wrap;html=1;fillColor=#dae8fc;strokeColor=#6c8ebf;" vertex="1" parent="1">
          <mxGeometry x="80" y="80" width="100" height="40" as="geometry" />
        </mxCell>
        <mxCell id="S2n5dIdWyxlMUNsfM2IR-10" value="저장소" style="strokeWidth=2;html=1;shape=mxgraph.flowchart.database;whiteSpace=wrap;fillColor=#dae8fc;strokeColor=#6c8ebf;" vertex="1" parent="1">
          <mxGeometry x="250" y="180" width="60" height="50" as="geometry" />
        </mxCell>
        <mxCell id="S2n5dIdWyxlMUNsfM2IR-11" style="edgeStyle=orthogonalEdgeStyle;rounded=0;orthogonalLoop=1;jettySize=auto;html=1;entryX=1;entryY=0.5;entryDx=0;entryDy=0;entryPerimeter=0;endArrow=block;endFill=1;" edge="1" parent="1" source="S2n5dIdWyxlMUNsfM2IR-5" target="S2n5dIdWyxlMUNsfM2IR-10">
          <mxGeometry relative="1" as="geometry">
            <Array as="points">
              <mxPoint x="430" y="205" />
            </Array>
          </mxGeometry>
        </mxCell>
        <mxCell id="S2n5dIdWyxlMUNsfM2IR-12" value="이벤트 저장" style="edgeLabel;html=1;align=center;verticalAlign=middle;resizable=0;points=[];fontSize=12;" vertex="1" connectable="0" parent="S2n5dIdWyxlMUNsfM2IR-11">
          <mxGeometry x="-0.4927" y="2" relative="1" as="geometry">
            <mxPoint x="-2" as="offset" />
          </mxGeometry>
        </mxCell>
        <mxCell id="S2n5dIdWyxlMUNsfM2IR-13" style="edgeStyle=orthogonalEdgeStyle;rounded=0;orthogonalLoop=1;jettySize=auto;html=1;entryX=0.5;entryY=1;entryDx=0;entryDy=0;entryPerimeter=0;endArrow=block;endFill=1;" edge="1" parent="1" source="S2n5dIdWyxlMUNsfM2IR-4" target="S2n5dIdWyxlMUNsfM2IR-10">
          <mxGeometry relative="1" as="geometry" />
        </mxCell>
        <mxCell id="S2n5dIdWyxlMUNsfM2IR-14" value="REST API 와 같은 방식으로&amp;nbsp;&lt;div&gt;이벤트를 외부에 제공&lt;/div&gt;" style="text;html=1;align=left;verticalAlign=middle;whiteSpace=wrap;rounded=0;fillColor=#f5f5f5;fontColor=#333333;strokeColor=#666666;sketch=1;curveFitting=1;jiggle=2;" vertex="1" parent="1">
          <mxGeometry x="205" y="330" width="150" height="40" as="geometry" />
        </mxCell>
        <mxCell id="S2n5dIdWyxlMUNsfM2IR-15" value="API 를 통해 이벤트를 읽어와 처리" style="text;html=1;align=left;verticalAlign=middle;whiteSpace=wrap;rounded=0;fillColor=#f5f5f5;fontColor=#333333;strokeColor=#666666;sketch=1;curveFitting=1;jiggle=2;" vertex="1" parent="1">
          <mxGeometry x="380" y="330" width="170" height="40" as="geometry" />
        </mxCell>
      </root>
    </mxGraphModel>
  </diagram>
</mxfile>
